# This file uses centimeters as units for non-parametric coordinates.

mtllib piso2.mtl
g default
v -4.604414 -0.132415 5.432586
v 4.604414 -0.132415 5.432586
v -4.604414 0.132415 5.432586
v 4.604414 0.132415 5.432586
v -4.604414 0.132415 -5.432586
v 4.604414 0.132415 -5.432586
v -4.604414 -0.132415 -5.432586
v 4.604414 -0.132415 -5.432586
vt 1.266689 0.823821
vt 1.266689 -0.020357
vt 1.290966 -0.020357
vt 1.290966 0.823821
vt 1.297862 0.823821
vt 1.297862 -0.020357
vt 1.322139 -0.020357
vt 1.322139 0.823821
vt 1.204343 0.975659
vt 1.204343 -0.020357
vt 1.228621 -0.020357
vt 1.228621 0.975659
vt 1.235516 0.975659
vt 1.235516 -0.020357
vt 1.259793 -0.020357
vt 1.259793 0.975659
vt -0.847579 -0.020357
vt -0.003401 -0.020357
vt -0.003401 0.975659
vt -0.847579 0.975659
vt -5.157003 -5.106067
vt 6.168452 -5.106067
vt 6.168452 6.106069
vt -5.157003 6.106069
vn 0.000000 0.000000 1.000000
vn 0.000000 0.000000 1.000000
vn 0.000000 0.000000 1.000000
vn 0.000000 0.000000 1.000000
vn 0.000000 1.000000 0.000000
vn 0.000000 1.000000 0.000000
vn 0.000000 1.000000 0.000000
vn 0.000000 1.000000 0.000000
vn 0.000000 0.000000 -1.000000
vn 0.000000 0.000000 -1.000000
vn 0.000000 0.000000 -1.000000
vn 0.000000 0.000000 -1.000000
vn 0.000000 -1.000000 0.000000
vn 0.000000 -1.000000 0.000000
vn 0.000000 -1.000000 0.000000
vn 0.000000 -1.000000 0.000000
vn 1.000000 0.000000 0.000000
vn 1.000000 0.000000 0.000000
vn 1.000000 0.000000 0.000000
vn 1.000000 0.000000 0.000000
vn -1.000000 0.000000 0.000000
vn -1.000000 0.000000 0.000000
vn -1.000000 0.000000 0.000000
vn -1.000000 0.000000 0.000000
s off
g piso2:pCube6
usemtl piso2:_Gray_
f 1/1/1 2/2/2 4/3/3 3/4/4
usemtl phong1SG
f 3/21/5 4/22/6 6/23/7 5/24/8
usemtl piso2:_Gray_
f 5/5/9 6/6/10 8/7/11 7/8/12
f 7/17/13 8/18/14 2/19/15 1/20/16
f 2/9/17 8/10/18 6/11/19 4/12/20
f 7/13/21 1/14/22 3/15/23 5/16/24
